<svg width="466" height="227" viewBox="0 0 466 227" fill="none" xmlns="http://www.w3.org/2000/svg">
<rect width="466" height="227" fill="#E5E5E5"/>
<rect width="466" height="227" fill="#FB1528"/>
<path d="M114.984 101.152C114.984 103.104 114.536 104.896 113.64 106.528C112.744 108.128 111.368 109.424 109.512 110.416C107.656 111.408 105.352 111.904 102.6 111.904H97.5121V124H89.3041V90.304H102.6C105.288 90.304 107.56 90.768 109.416 91.696C111.272 92.624 112.664 93.904 113.592 95.536C114.52 97.168 114.984 99.04 114.984 101.152ZM101.976 105.376C103.544 105.376 104.712 105.008 105.48 104.272C106.248 103.536 106.632 102.496 106.632 101.152C106.632 99.808 106.248 98.768 105.48 98.032C104.712 97.296 103.544 96.928 101.976 96.928H97.5121V105.376H101.976ZM130.153 124.384C127.817 124.384 125.737 123.984 123.913 123.184C122.089 122.384 120.649 121.296 119.593 119.92C118.537 118.512 117.945 116.944 117.817 115.216H125.929C126.025 116.144 126.457 116.896 127.225 117.472C127.993 118.048 128.937 118.336 130.057 118.336C131.081 118.336 131.865 118.144 132.409 117.76C132.985 117.344 133.273 116.816 133.273 116.176C133.273 115.408 132.873 114.848 132.073 114.496C131.273 114.112 129.977 113.696 128.185 113.248C126.265 112.8 124.665 112.336 123.385 111.856C122.105 111.344 121.001 110.56 120.073 109.504C119.145 108.416 118.681 106.96 118.681 105.136C118.681 103.6 119.097 102.208 119.929 100.96C120.793 99.68 122.041 98.672 123.673 97.936C125.337 97.2 127.305 96.832 129.577 96.832C132.937 96.832 135.577 97.664 137.497 99.328C139.449 100.992 140.569 103.2 140.857 105.952H133.273C133.145 105.024 132.729 104.288 132.025 103.744C131.353 103.2 130.457 102.928 129.337 102.928C128.377 102.928 127.641 103.12 127.129 103.504C126.617 103.856 126.361 104.352 126.361 104.992C126.361 105.76 126.761 106.336 127.561 106.72C128.393 107.104 129.673 107.488 131.401 107.872C133.385 108.384 135.001 108.896 136.249 109.408C137.497 109.888 138.585 110.688 139.513 111.808C140.473 112.896 140.969 114.368 141.001 116.224C141.001 117.792 140.553 119.2 139.657 120.448C138.793 121.664 137.529 122.624 135.865 123.328C134.233 124.032 132.329 124.384 130.153 124.384ZM173.383 97.216L156.583 136.72H147.751L153.895 123.088L142.999 97.216H152.167L158.359 113.968L164.503 97.216H173.383ZM205.535 90.304V124H197.327V110.128H184.559V124H176.351V90.304H184.559V103.504H197.327V90.304H205.535ZM236.708 110.176C236.708 110.944 236.66 111.744 236.564 112.576H217.988C218.116 114.24 218.644 115.52 219.572 116.416C220.532 117.28 221.7 117.712 223.076 117.712C225.124 117.712 226.548 116.848 227.348 115.12H236.084C235.636 116.88 234.82 118.464 233.636 119.872C232.484 121.28 231.028 122.384 229.268 123.184C227.508 123.984 225.54 124.384 223.364 124.384C220.74 124.384 218.404 123.824 216.356 122.704C214.308 121.584 212.708 119.984 211.556 117.904C210.404 115.824 209.828 113.392 209.828 110.608C209.828 107.824 210.388 105.392 211.508 103.312C212.66 101.232 214.26 99.632 216.308 98.512C218.356 97.392 220.708 96.832 223.364 96.832C225.956 96.832 228.26 97.376 230.276 98.464C232.292 99.552 233.86 101.104 234.98 103.12C236.132 105.136 236.708 107.488 236.708 110.176ZM228.308 108.016C228.308 106.608 227.828 105.488 226.868 104.656C225.908 103.824 224.708 103.408 223.268 103.408C221.892 103.408 220.724 103.808 219.764 104.608C218.836 105.408 218.26 106.544 218.036 108.016H228.308ZM239.407 110.56C239.407 107.808 239.919 105.392 240.943 103.312C241.999 101.232 243.423 99.632 245.215 98.512C247.007 97.392 249.007 96.832 251.215 96.832C253.103 96.832 254.751 97.216 256.159 97.984C257.599 98.752 258.703 99.76 259.471 101.008V97.216H267.679V124H259.471V120.208C258.671 121.456 257.551 122.464 256.111 123.232C254.703 124 253.055 124.384 251.167 124.384C248.991 124.384 247.007 123.824 245.215 122.704C243.423 121.552 241.999 119.936 240.943 117.856C239.919 115.744 239.407 113.312 239.407 110.56ZM259.471 110.608C259.471 108.56 258.895 106.944 257.743 105.76C256.623 104.576 255.247 103.984 253.615 103.984C251.983 103.984 250.591 104.576 249.439 105.76C248.319 106.912 247.759 108.512 247.759 110.56C247.759 112.608 248.319 114.24 249.439 115.456C250.591 116.64 251.983 117.232 253.615 117.232C255.247 117.232 256.623 116.64 257.743 115.456C258.895 114.272 259.471 112.656 259.471 110.608ZM281.825 101.68C282.785 100.208 283.985 99.056 285.425 98.224C286.865 97.36 288.465 96.928 290.225 96.928V105.616H287.969C285.921 105.616 284.385 106.064 283.361 106.96C282.337 107.824 281.825 109.36 281.825 111.568V124H273.617V97.216H281.825V101.68ZM309.076 117.04V124H304.9C301.924 124 299.604 123.28 297.94 121.84C296.276 120.368 295.444 117.984 295.444 114.688V104.032H292.18V97.216H295.444V90.688H303.652V97.216H309.028V104.032H303.652V114.784C303.652 115.584 303.844 116.16 304.228 116.512C304.612 116.864 305.252 117.04 306.148 117.04H309.076Z" fill="white"/>
<path d="M373.583 92.2237C372.561 91.2017 371.348 90.3909 370.013 89.8378C368.678 89.2847 367.248 89 365.803 89C364.358 89 362.927 89.2847 361.592 89.8378C360.257 90.3909 359.044 91.2017 358.023 92.2237L355.903 94.3437L353.783 92.2237C351.719 90.1603 348.921 89.0011 346.003 89.0011C343.085 89.0011 340.286 90.1603 338.223 92.2237C336.159 94.287 335 97.0856 335 100.004C335 102.922 336.159 105.72 338.223 107.784L340.343 109.904L355.903 125.464L371.463 109.904L373.583 107.784C374.605 106.762 375.415 105.549 375.968 104.214C376.522 102.879 376.806 101.449 376.806 100.004C376.806 98.5587 376.522 97.1279 375.968 95.7929C375.415 94.458 374.605 93.2452 373.583 92.2237V92.2237Z" stroke="white" stroke-width="6" stroke-linecap="round" stroke-linejoin="round"/>
</svg>
